<?xml version="1.0" encoding="UTF-8" standalone="no"?>
<!-- Created with Inkscape (http://www.inkscape.org/) -->

<svg
   xmlns:dc="http://purl.org/dc/elements/1.1/"
   xmlns:cc="http://creativecommons.org/ns#"
   xmlns:rdf="http://www.w3.org/1999/02/22-rdf-syntax-ns#"
   xmlns:svg="http://www.w3.org/2000/svg"
   xmlns="http://www.w3.org/2000/svg"
   xmlns:sodipodi="http://sodipodi.sourceforge.net/DTD/sodipodi-0.dtd"
   xmlns:inkscape="http://www.inkscape.org/namespaces/inkscape"
   width="1000"
   height="1600"
   viewBox="0 0 264.58333 423.33335"
   version="1.1"
   id="svg8"
   inkscape:version="0.92.2 (5c3e80d, 2017-08-06)"
   sodipodi:docname="water.svg">
  <defs
     id="defs2" />
  <sodipodi:namedview
     id="base"
     pagecolor="#ffffff"
     bordercolor="#666666"
     borderopacity="1.0"
     inkscape:pageopacity="0.0"
     inkscape:pageshadow="2"
     inkscape:zoom="0.35"
     inkscape:cx="-345.71429"
     inkscape:cy="674.28571"
     inkscape:document-units="mm"
     inkscape:current-layer="layer1"
     showgrid="false"
     units="px"
     inkscape:pagecheckerboard="true"
     inkscape:window-width="1160"
     inkscape:window-height="759"
     inkscape:window-x="595"
     inkscape:window-y="175"
     inkscape:window-maximized="0" />
  <metadata
     id="metadata5">
    <rdf:RDF>
      <cc:Work
         rdf:about="">
        <dc:format>image/svg+xml</dc:format>
        <dc:type
           rdf:resource="http://purl.org/dc/dcmitype/StillImage" />
        <dc:title />
      </cc:Work>
    </rdf:RDF>
  </metadata>
  <g
     inkscape:label="Layer 1"
     inkscape:groupmode="layer"
     id="layer1"
     transform="translate(0,126.33335)">
    <rect
       style="fill:#ffffff;fill-opacity:1;stroke-width:0.26458332"
       id="rect4506"
       width="264.58334"
       height="423.33334"
       x="0"
       y="-126.33336" />
    <path
       style="fill:#1e90ff;fill-opacity:1;stroke-width:0.26458332"
       d="m 125.79063,108.01211 c -13.36004,0 -31.503288,9.11561 -40.258531,18.96525 -8.755231,9.84963 -10.390578,17.40933 -10.390578,32.43936 0,15.03004 3.903427,24.85729 12.658658,34.70692 8.755243,9.84963 22.362341,19.7218 35.722371,19.7218 13.36003,0 30.74675,-7.60408 39.50198,-17.45372 8.75523,-9.84963 11.14713,-18.92138 11.14713,-33.95141 0,-15.03003 -5.41549,-28.63691 -14.17072,-38.48654 -8.75521,-9.84963 -20.85028,-15.94166 -34.21031,-15.94166 z m 0,8.46667 c 11.72827,0 20.84675,5.22085 28.53263,13.52268 7.68587,8.30183 9.79371,19.77067 9.79371,32.43885 0,12.66817 -1.56987,19.78482 -9.25576,28.08665 -7.68588,8.30183 -20.83253,11.00708 -32.5608,11.00708 -11.72827,0 -18.38177,-8.32042 -26.067658,-16.62224 -7.685852,-8.30184 -11.112514,-12.35198 -11.112514,-25.02017 0,-12.66817 2.947438,-17.52775 10.633324,-25.82958 7.685868,-8.30184 18.308788,-17.58327 30.037068,-17.58327 z"
       id="path4508"
       inkscape:connector-curvature="0"
       sodipodi:nodetypes="ssssssssszsssscssz" />
    <path
       style="fill:#1e90ff;fill-opacity:1;stroke-width:0.40430218"
       d="m 127.64115,82.399629 c -21.62079,0 -50.98233,13.152538 -65.151104,27.364151 -14.168743,14.21161 -16.815255,25.11916 -16.815255,46.80536 0,21.6862 6.316987,35.86554 20.48573,50.07714 14.168749,14.21161 36.189369,28.45574 57.810149,28.45574 21.62079,0 49.75803,-10.9716 63.92677,-25.18322 14.16876,-14.21161 18.03961,-27.30087 18.03961,-48.98705 0,-21.6862 -8.76398,-41.31897 -22.93273,-55.53058 C 168.83559,91.189558 149.26193,82.399629 127.64115,82.399629 Z m -2.42692,12.340715 c 18.98008,0 36.16358,7.408426 48.60178,19.386786 12.43819,11.97835 20.13115,28.52623 20.13115,46.80462 0,18.27835 -3.39692,29.31019 -15.83513,41.28855 -12.4382,11.97835 -37.13912,21.22624 -56.11919,21.22624 -18.98007,0 -38.31112,-12.00519 -50.749344,-23.98352 -12.438133,-11.97838 -17.983564,-23.93026 -17.983564,-42.20865 0,-18.27836 2.323147,-27.47151 14.76133,-39.44985 C 80.45945,105.82615 106.23415,94.740344 125.21423,94.740344 Z"
       id="path4508-6"
       inkscape:connector-curvature="0" />
    <path
       style="fill:#1e90ff;fill-opacity:1;stroke-width:0.12697715"
       d="m 121.8844,134.47022 c -6.52708,0 -15.39098,4.29737 -19.66837,8.94076 -4.277378,4.6434 -5.076328,8.20726 -5.076328,15.29285 0,7.08558 1.90702,11.71843 6.184408,16.36183 4.27738,4.64339 10.92514,9.29742 17.45222,9.29742 6.52706,0 15.02136,-3.58478 19.29874,-8.22818 4.27738,-4.6434 5.44595,-8.92008 5.44595,-16.00567 0,-7.08559 -2.64574,-13.50026 -6.92313,-18.14365 -4.27737,-4.6434 -10.18643,-7.51536 -16.71349,-7.51536 z m -0.73266,9.32378 c 5.72986,0 6.15487,1.36224 9.90982,5.27596 3.75494,3.91372 4.48986,5.61629 4.48986,11.58844 0,5.97213 0.0328,5.87243 -3.72213,9.78615 -3.75493,3.91372 -5.92019,2.70197 -11.65005,2.70197 -5.72987,0 -6.80319,-2.335 -10.55815,-6.2487 -3.75493,-3.91373 -2.7832,-1.99797 -2.7832,-7.97011 0,-5.97213 -0.357,-4.7425 3.39795,-8.65622 3.75494,-3.91373 5.18603,-6.47749 10.9159,-6.47749 z"
       id="path4508-7"
       inkscape:connector-curvature="0"
       sodipodi:nodetypes="scssssscsscscscscs" />
    <path
       style="fill:#1e90ff;fill-opacity:1;stroke-width:0.04652202"
       d="m 121.15174,147.49817 c -2.14173,0 -5.05024,1.75801 -6.45378,3.65759 -1.40354,1.89957 -1.6657,3.35751 -1.6657,6.25616 0,2.89865 0.62575,4.79391 2.02929,6.69348 1.40354,1.89957 3.58487,3.80349 5.7266,3.80349 2.14172,0 4.92896,-1.4665 6.3325,-3.36608 1.40353,-1.89957 1.78698,-3.64912 1.78698,-6.54777 0,-2.89865 -0.86815,-5.52283 -2.27169,-7.42241 -1.40353,-1.89956 -3.34247,-3.07446 -5.4842,-3.07446 z"
       id="path4508-7-5"
       inkscape:connector-curvature="0"
       sodipodi:nodetypes="scssssscs" />
  </g>
</svg>
